HIERARCHY
ROOT hip
{
	OFFSET 0.000000 0.000000 0.000000 
	CHANNELS 6 Xposition Yposition Zposition Xrotation Zrotation Yrotation
	JOINT abdomen
	{
		OFFSET 0.000000 3.402643 0.000000 
		CHANNELS 3 Xrotation Zrotation Yrotation
		JOINT chest
		{
			OFFSET 0.000000 8.438565 -0.680529 
			CHANNELS 3 Xrotation Zrotation Yrotation
			JOINT neck
			{
				OFFSET 0.000000 10.207942 -0.272212 
				CHANNELS 3 Xrotation Zrotation Yrotation
				JOINT head
				{
					OFFSET 0.000000 3.130431 0.000000 
					CHANNELS 3 Xrotation Zrotation Yrotation
					End Site
					{
						OFFSET 0.000000 3.130435 0.000000 
					}
				}
			}
			JOINT lCollar
			{
				OFFSET 3.470700 6.669187 -0.816635 
				CHANNELS 3 Yrotation Zrotation Xrotation
				JOINT lShldr
				{
					OFFSET 3.198488 0.000000 0.000000 
					CHANNELS 3 Zrotation Yrotation Xrotation
					JOINT lForeArm
					{
						OFFSET 10.139888 0.000000 0.000000 
						CHANNELS 3 Yrotation Zrotation Xrotation
						JOINT lHand
						{
							OFFSET 8.370511 0.000000 0.000000 
							CHANNELS 3 Zrotation Yrotation Xrotation
							End Site
							{
								OFFSET 4.083176 0.000000 0.000000 
							}
						}
					}
				}
			}
			JOINT rCollar
			{
				OFFSET -3.470700 6.669187 -0.816635 
				CHANNELS 3 Yrotation Zrotation Xrotation
				JOINT rShldr
				{
					OFFSET -3.198488 0.000000 0.000000 
					CHANNELS 3 Zrotation Yrotation Xrotation
					JOINT rForeArm
					{
						OFFSET -10.139888 0.000000 0.000000 
						CHANNELS 3 Yrotation Zrotation Xrotation
						JOINT rHand
						{
							OFFSET -8.370511 0.000000 0.000000 
							CHANNELS 3 Zrotation Yrotation Xrotation
							End Site
							{
								OFFSET -4.083176 0.000000 0.000000 
							}
						}
					}
				}
			}
		}
	}
	JOINT lThigh
	{
		OFFSET 5.308129 -1.633274 1.361059 
		CHANNELS 3 Xrotation Zrotation Yrotation
		JOINT lShin
		{
			OFFSET -2.041588 -20.007561 0.000000 
			CHANNELS 3 Xrotation Zrotation Yrotation
			JOINT lFoot
			{
				OFFSET 0.000000 -19.190928 -1.224953 
				CHANNELS 3 Xrotation Yrotation Zrotation
				End Site
				{
					OFFSET 0.000000 -2.449906 4.627600 
				}
			}
		}
	}
	JOINT rThigh
	{
		OFFSET -5.308129 -1.633274 1.361059 
		CHANNELS 3 Xrotation Zrotation Yrotation
		JOINT rShin
		{
			OFFSET 2.041588 -20.007561 0.000000 
			CHANNELS 3 Xrotation Zrotation Yrotation
			JOINT rFoot
			{
				OFFSET 0.000000 -19.190928 -1.224953 
				CHANNELS 3 Xrotation Yrotation Zrotation
				End Site
				{
					OFFSET 0.000000 -2.449906 4.627600 
				}
			}
		}
	}
}
MOTION
Frames: 6
Frame Time: 0.033333
6.208524 42.200470 41.199646 -7.568359 3.681641 -145.546249 23.515625 4.589844 -6.425000 -13.896485 -3.925782 -7.783203 -4.804688 -4.062500 -5.986328 19.287107 11.201171 -5.732422 13.134766 19.658203 0.908203 46.904301 -69.433594 -77.606796 -85.361328 -3.056641 -31.981903 18.593748 -5.546875 -1.865234 -2.343750 -10.664063 0.429687 33.564453 62.109375 -54.044106 112.080078 3.710938 -55.576172 -16.748047 0.029297 -0.234375 -8.075715 22.858374 12.552608 49.830833 -0.423569 -3.069041 -17.438047 8.902120 -3.947466 -49.134781 -12.831272 8.353482 56.306225 -0.701500 3.357140 -8.015734 4.014224 7.790902 
6.196551 42.224289 42.105572 -9.316406 4.921875 -148.876114 22.949219 4.511444 -7.372839 -15.126955 -4.277344 -8.496095 -5.927734 -2.832031 -4.160638 21.054688 11.191406 -3.923887 17.441406 19.814453 0.953721 63.583988 -56.162113 -106.873344 -79.208984 -2.734375 -24.863283 16.748047 -10.087892 -2.833742 -6.923828 -12.216798 0.607535 -8.652345 66.708992 -99.609375 108.974609 3.593750 -47.803349 -19.433594 4.384766 -1.562500 -8.963080 23.789740 11.007579 52.280533 -0.394468 -3.168803 -13.719760 12.512568 -3.882677 -53.097744 -10.390835 10.947883 56.319160 -0.443630 3.460289 -6.406693 1.983074 7.387293 
6.227633 41.864151 42.993343 -11.425781 6.328125 -152.215729 21.669922 4.580079 -8.817580 -16.005859 -4.980468 -9.912956 -10.039063 -0.361328 -2.265687 23.701174 10.830078 -1.560665 19.394531 19.130861 0.927735 78.164063 -46.630859 -137.585220 -65.917969 -2.558594 -17.333984 16.142578 -16.113281 -4.250758 -12.050781 -13.330078 0.510064 -47.597656 58.769531 -140.831497 101.064453 3.320313 -38.320313 -19.619141 7.753906 -2.578125 -8.426358 24.817474 8.234177 51.423454 -0.560382 -2.872551 -10.716294 16.607439 -3.498147 -57.901562 -7.247221 11.896625 58.042355 -0.785905 3.382381 -5.593198 2.258221 7.280728 
6.165592 41.126812 43.762241 -12.841797 7.197266 -155.751953 19.824219 4.755859 -10.614424 -16.357422 -6.562500 -11.669923 -14.687501 3.183594 -0.312500 25.996094 10.283202 1.144321 18.017578 18.330078 0.771485 93.007813 -43.857422 -169.987228 -58.583981 -2.167969 -10.165647 16.904297 -20.703127 -5.673828 -15.820312 -13.408203 0.519843 -62.041019 48.740234 -151.494141 94.345703 2.861328 -27.910645 -19.462891 7.880859 -2.733037 -4.931320 25.054548 4.140065 47.200768 -0.742853 -2.877999 -9.155327 21.513742 -2.892804 -62.472641 -4.269235 12.462873 61.030170 -0.962110 3.567603 -4.417095 3.060905 7.208099 
5.963875 40.147488 44.456169 -12.841798 7.558595 -159.785156 17.978516 4.873047 -12.225732 -16.357422 -7.968750 -13.251954 -17.392578 6.621413 0.596700 27.226561 9.218750 5.224609 13.837891 17.373047 0.934584 -77.802734 -129.052734 -3.865005 -65.253906 -2.451172 -17.480053 16.162111 -20.986330 -5.433186 -17.373045 -13.515625 0.480798 -63.974613 45.126953 -143.251953 90.478516 2.412109 -16.846113 -19.736326 1.962891 -0.907867 0.693409 24.596111 0.494016 43.676136 -0.588691 -2.987376 -7.650295 24.311804 -3.247848 -65.141914 -1.621824 12.873919 62.269299 -0.980759 3.605145 -3.522294 4.196584 7.231035 
5.652710 39.159454 45.249378 -11.259766 7.558595 -164.179688 16.894533 4.863281 -12.782376 -16.015625 -9.375000 -13.955078 -18.017578 9.628906 2.403977 27.392578 8.515625 7.509766 9.541017 16.640625 0.768688 -71.406250 -115.566406 -3.944359 -70.146484 -3.017578 -32.900391 9.541016 -18.476563 -2.734375 -16.318357 -13.632812 0.510114 -59.375000 46.718754 -122.424530 84.960938 1.855469 -6.650391 -18.476563 -6.582031 1.708984 6.288008 23.420273 -1.739999 44.573307 -0.537513 -3.040910 -6.179098 23.363035 -3.974152 -64.722107 0.291670 13.231724 61.047577 -0.814453 3.487242 -5.297846 8.154851 7.908013 
